# xmcd
#
# Track frame offsets:
#	150
#	20820
#	35603
#	61575
#	81068
#	95692
#	116423
#	129368
#	167673
#
# Disc length: 2484 seconds
#
# Revision: 0
# Processed by: cddbd v1.5.2PL0 Copyright (c) Steve Scherf et al.
# Submitted via: audiograbber 1.83.01
#
DISCID=6b09b209
DTITLE=Grayson Capps - Scarlett Roses
DYEAR=2017
DGENRE=Country
TTITLE0=Scarlett Roses
TTITLE1=Hold Me Darlin'
TTITLE2=Bag of Weed
TTITLE3=You Can't Turn Around
TTITLE4=Thankful
TTITLE5=New Again
TTITLE6=Hit Em up Julie
TTITLE7=Taos
TTITLE8=Moving On
EXTD=
EXTT0=
EXTT1=
EXTT2=
EXTT3=
EXTT4=
EXTT5=
EXTT6=
EXTT7=
EXTT8=
PLAYORDER=
